<mxfile host="app.diagrams.net" agent="Mozilla/5.0 (Macintosh; Intel Mac OS X 10_15_7) AppleWebKit/537.36 (KHTML, like Gecko) Chrome/137.0.0.0 Safari/537.36" version="27.1.3">
  <diagram name="第 1 页" id="cSPj7DmLmPOtaZ5PePjK">
    <mxGraphModel dx="1593" dy="1764" grid="0" gridSize="10" guides="0" tooltips="1" connect="1" arrows="1" fold="1" page="0" pageScale="1" pageWidth="827" pageHeight="1169" math="0" shadow="0">
      <root>
        <mxCell id="0" />
        <mxCell id="1" parent="0" />
        <mxCell id="YZgzj9Rc7FHxQCSYHV_q-28" style="edgeStyle=orthogonalEdgeStyle;rounded=0;orthogonalLoop=1;jettySize=auto;html=1;exitX=0.25;exitY=0;exitDx=0;exitDy=0;entryX=0.5;entryY=1;entryDx=0;entryDy=0;" edge="1" parent="1" source="YZgzj9Rc7FHxQCSYHV_q-1" target="YZgzj9Rc7FHxQCSYHV_q-27">
          <mxGeometry relative="1" as="geometry" />
        </mxCell>
        <mxCell id="YZgzj9Rc7FHxQCSYHV_q-29" style="edgeStyle=orthogonalEdgeStyle;rounded=0;orthogonalLoop=1;jettySize=auto;html=1;exitX=0.75;exitY=0;exitDx=0;exitDy=0;entryX=0.25;entryY=1;entryDx=0;entryDy=0;" edge="1" parent="1" source="YZgzj9Rc7FHxQCSYHV_q-1" target="YZgzj9Rc7FHxQCSYHV_q-2">
          <mxGeometry relative="1" as="geometry" />
        </mxCell>
        <mxCell id="YZgzj9Rc7FHxQCSYHV_q-1" value="common" style="rounded=1;whiteSpace=wrap;html=1;" vertex="1" parent="1">
          <mxGeometry x="200" y="260" width="120" height="60" as="geometry" />
        </mxCell>
        <mxCell id="YZgzj9Rc7FHxQCSYHV_q-2" value="&lt;div style=&quot;background-color:#ffffff;color:#080808&quot;&gt;&lt;pre style=&quot;font-family:&#39;Hack&#39;,monospace;font-size:9.8pt;&quot;&gt;encrypt-api&lt;/pre&gt;&lt;/div&gt;" style="rounded=1;whiteSpace=wrap;html=1;" vertex="1" parent="1">
          <mxGeometry x="382" y="78" width="120" height="60" as="geometry" />
        </mxCell>
        <mxCell id="YZgzj9Rc7FHxQCSYHV_q-7" style="edgeStyle=orthogonalEdgeStyle;rounded=0;orthogonalLoop=1;jettySize=auto;html=1;exitX=0.5;exitY=0;exitDx=0;exitDy=0;" edge="1" parent="1" source="YZgzj9Rc7FHxQCSYHV_q-3" target="YZgzj9Rc7FHxQCSYHV_q-2">
          <mxGeometry relative="1" as="geometry" />
        </mxCell>
        <mxCell id="YZgzj9Rc7FHxQCSYHV_q-8" style="edgeStyle=orthogonalEdgeStyle;rounded=0;orthogonalLoop=1;jettySize=auto;html=1;exitX=0.25;exitY=0;exitDx=0;exitDy=0;" edge="1" parent="1" source="YZgzj9Rc7FHxQCSYHV_q-3" target="YZgzj9Rc7FHxQCSYHV_q-1">
          <mxGeometry relative="1" as="geometry" />
        </mxCell>
        <mxCell id="YZgzj9Rc7FHxQCSYHV_q-3" value="&lt;div style=&quot;background-color:#ffffff;color:#080808&quot;&gt;&lt;pre style=&quot;font-family:&#39;Hack&#39;,monospace;font-size:9.8pt;&quot;&gt;platform-rule&lt;/pre&gt;&lt;/div&gt;" style="rounded=1;whiteSpace=wrap;html=1;" vertex="1" parent="1">
          <mxGeometry x="370" y="500" width="120" height="60" as="geometry" />
        </mxCell>
        <mxCell id="YZgzj9Rc7FHxQCSYHV_q-11" style="edgeStyle=orthogonalEdgeStyle;rounded=0;orthogonalLoop=1;jettySize=auto;html=1;exitX=0.25;exitY=0;exitDx=0;exitDy=0;entryX=0.5;entryY=1;entryDx=0;entryDy=0;" edge="1" parent="1" source="YZgzj9Rc7FHxQCSYHV_q-9" target="YZgzj9Rc7FHxQCSYHV_q-10">
          <mxGeometry relative="1" as="geometry" />
        </mxCell>
        <mxCell id="YZgzj9Rc7FHxQCSYHV_q-12" style="edgeStyle=orthogonalEdgeStyle;rounded=0;orthogonalLoop=1;jettySize=auto;html=1;entryX=0.25;entryY=1;entryDx=0;entryDy=0;" edge="1" parent="1" source="YZgzj9Rc7FHxQCSYHV_q-9" target="YZgzj9Rc7FHxQCSYHV_q-1">
          <mxGeometry relative="1" as="geometry" />
        </mxCell>
        <mxCell id="YZgzj9Rc7FHxQCSYHV_q-9" value="&lt;div style=&quot;background-color: rgb(255, 255, 255);&quot;&gt;&lt;pre style=&quot;font-family:&#39;Hack&#39;,monospace;font-size:9.8pt;&quot;&gt;sql-parser-statement&lt;/pre&gt;&lt;/div&gt;" style="rounded=1;whiteSpace=wrap;html=1;fillColor=#ffe6cc;strokeColor=#d79b00;" vertex="1" parent="1">
          <mxGeometry x="37" y="495" width="230" height="60" as="geometry" />
        </mxCell>
        <mxCell id="YZgzj9Rc7FHxQCSYHV_q-10" value="&lt;div style=&quot;background-color:#ffffff;color:#080808&quot;&gt;&lt;pre style=&quot;font-family:&#39;Hack&#39;,monospace;font-size:9.8pt;&quot;&gt;sql-parser-spi&lt;/pre&gt;&lt;/div&gt;" style="rounded=1;whiteSpace=wrap;html=1;" vertex="1" parent="1">
          <mxGeometry x="5" y="-163" width="170" height="60" as="geometry" />
        </mxCell>
        <mxCell id="YZgzj9Rc7FHxQCSYHV_q-15" style="edgeStyle=orthogonalEdgeStyle;rounded=0;orthogonalLoop=1;jettySize=auto;html=1;exitX=0.25;exitY=0;exitDx=0;exitDy=0;" edge="1" parent="1" source="YZgzj9Rc7FHxQCSYHV_q-14" target="YZgzj9Rc7FHxQCSYHV_q-3">
          <mxGeometry relative="1" as="geometry" />
        </mxCell>
        <mxCell id="YZgzj9Rc7FHxQCSYHV_q-25" style="edgeStyle=orthogonalEdgeStyle;rounded=0;orthogonalLoop=1;jettySize=auto;html=1;exitX=0.692;exitY=-0.017;exitDx=0;exitDy=0;entryX=0.5;entryY=1;entryDx=0;entryDy=0;exitPerimeter=0;" edge="1" parent="1" source="YZgzj9Rc7FHxQCSYHV_q-14" target="YZgzj9Rc7FHxQCSYHV_q-24">
          <mxGeometry relative="1" as="geometry" />
        </mxCell>
        <mxCell id="YZgzj9Rc7FHxQCSYHV_q-26" style="edgeStyle=orthogonalEdgeStyle;rounded=0;orthogonalLoop=1;jettySize=auto;html=1;entryX=0.5;entryY=1;entryDx=0;entryDy=0;" edge="1" parent="1" source="YZgzj9Rc7FHxQCSYHV_q-14" target="YZgzj9Rc7FHxQCSYHV_q-16">
          <mxGeometry relative="1" as="geometry" />
        </mxCell>
        <mxCell id="YZgzj9Rc7FHxQCSYHV_q-14" value="&lt;div style=&quot;background-color: rgb(255, 255, 255); color: rgb(8, 8, 8);&quot;&gt;&lt;pre style=&quot;font-family:&#39;Hack&#39;,monospace;font-size:9.8pt;&quot;&gt;jdbc&lt;/pre&gt;&lt;/div&gt;" style="rounded=1;whiteSpace=wrap;html=1;" vertex="1" parent="1">
          <mxGeometry x="613" y="721" width="120" height="60" as="geometry" />
        </mxCell>
        <mxCell id="YZgzj9Rc7FHxQCSYHV_q-18" style="edgeStyle=orthogonalEdgeStyle;rounded=0;orthogonalLoop=1;jettySize=auto;html=1;entryX=0.5;entryY=1;entryDx=0;entryDy=0;" edge="1" parent="1" source="YZgzj9Rc7FHxQCSYHV_q-16" target="YZgzj9Rc7FHxQCSYHV_q-17">
          <mxGeometry relative="1" as="geometry">
            <Array as="points">
              <mxPoint x="670" y="410" />
              <mxPoint x="690" y="410" />
            </Array>
          </mxGeometry>
        </mxCell>
        <mxCell id="YZgzj9Rc7FHxQCSYHV_q-30" style="edgeStyle=orthogonalEdgeStyle;rounded=0;orthogonalLoop=1;jettySize=auto;html=1;exitX=0.25;exitY=0;exitDx=0;exitDy=0;entryX=0.75;entryY=1;entryDx=0;entryDy=0;" edge="1" parent="1" source="YZgzj9Rc7FHxQCSYHV_q-16" target="YZgzj9Rc7FHxQCSYHV_q-2">
          <mxGeometry relative="1" as="geometry">
            <Array as="points">
              <mxPoint x="615" y="412" />
              <mxPoint x="472" y="412" />
            </Array>
          </mxGeometry>
        </mxCell>
        <mxCell id="YZgzj9Rc7FHxQCSYHV_q-16" value="&lt;div style=&quot;background-color:#ffffff;color:#080808&quot;&gt;&lt;pre style=&quot;font-family:&#39;Hack&#39;,monospace;font-size:9.8pt;&quot;&gt;sql-parser-result-binder&lt;/pre&gt;&lt;/div&gt;" style="rounded=1;whiteSpace=wrap;html=1;" vertex="1" parent="1">
          <mxGeometry x="560" y="500" width="220" height="60" as="geometry" />
        </mxCell>
        <mxCell id="YZgzj9Rc7FHxQCSYHV_q-20" style="edgeStyle=orthogonalEdgeStyle;rounded=0;orthogonalLoop=1;jettySize=auto;html=1;entryX=0.75;entryY=1;entryDx=0;entryDy=0;exitX=0.25;exitY=0;exitDx=0;exitDy=0;" edge="1" parent="1" source="YZgzj9Rc7FHxQCSYHV_q-17" target="YZgzj9Rc7FHxQCSYHV_q-10">
          <mxGeometry relative="1" as="geometry">
            <Array as="points">
              <mxPoint x="635" y="-10" />
              <mxPoint x="133" y="-10" />
            </Array>
          </mxGeometry>
        </mxCell>
        <mxCell id="YZgzj9Rc7FHxQCSYHV_q-17" value="&lt;div style=&quot;background-color: rgb(255, 255, 255); color: rgb(8, 8, 8);&quot;&gt;&lt;pre style=&quot;font-family:&#39;Hack&#39;,monospace;font-size:9.8pt;&quot;&gt;&lt;div&gt;&lt;pre style=&quot;font-family:&#39;Hack&#39;,monospace;font-size:9.8pt;&quot;&gt;sql-parser-engine&lt;/pre&gt;&lt;/div&gt;&lt;/pre&gt;&lt;/div&gt;" style="rounded=1;whiteSpace=wrap;html=1;" vertex="1" parent="1">
          <mxGeometry x="580" y="260" width="220" height="60" as="geometry" />
        </mxCell>
        <mxCell id="YZgzj9Rc7FHxQCSYHV_q-22" value="&lt;div style=&quot;background-color: rgb(255, 255, 255);&quot;&gt;&lt;pre style=&quot;font-family:&#39;Hack&#39;,monospace;font-size:9.8pt;&quot;&gt;sql-parser-statement&lt;/pre&gt;&lt;/div&gt;" style="rounded=1;whiteSpace=wrap;html=1;fillColor=#ffe6cc;strokeColor=#d79b00;" vertex="1" parent="1">
          <mxGeometry x="694" y="73" width="230" height="60" as="geometry" />
        </mxCell>
        <mxCell id="YZgzj9Rc7FHxQCSYHV_q-23" style="edgeStyle=orthogonalEdgeStyle;rounded=0;orthogonalLoop=1;jettySize=auto;html=1;exitX=0.5;exitY=0;exitDx=0;exitDy=0;entryX=0.53;entryY=1.033;entryDx=0;entryDy=0;entryPerimeter=0;" edge="1" parent="1" source="YZgzj9Rc7FHxQCSYHV_q-17" target="YZgzj9Rc7FHxQCSYHV_q-22">
          <mxGeometry relative="1" as="geometry" />
        </mxCell>
        <mxCell id="YZgzj9Rc7FHxQCSYHV_q-24" value="&lt;div style=&quot;background-color: rgb(255, 255, 255); color: rgb(8, 8, 8);&quot;&gt;&lt;pre style=&quot;font-family:&#39;Hack&#39;,monospace;font-size:9.8pt;&quot;&gt;sql-parser-xxx&lt;/pre&gt;&lt;/div&gt;" style="rounded=1;whiteSpace=wrap;html=1;" vertex="1" parent="1">
          <mxGeometry x="843" y="499" width="190" height="60" as="geometry" />
        </mxCell>
        <mxCell id="YZgzj9Rc7FHxQCSYHV_q-27" value="&lt;div style=&quot;background-color: rgb(255, 255, 255); color: rgb(8, 8, 8);&quot;&gt;&lt;pre style=&quot;font-family:&#39;Hack&#39;,monospace;font-size:9.8pt;&quot;&gt;spi&lt;/pre&gt;&lt;/div&gt;" style="rounded=1;whiteSpace=wrap;html=1;" vertex="1" parent="1">
          <mxGeometry x="162" y="83" width="120" height="60" as="geometry" />
        </mxCell>
        <mxCell id="YZgzj9Rc7FHxQCSYHV_q-31" value="daps6 包依赖关系图" style="text;html=1;align=center;verticalAlign=middle;whiteSpace=wrap;rounded=0;fontSize=30;" vertex="1" parent="1">
          <mxGeometry x="344" y="-217" width="313" height="24" as="geometry" />
        </mxCell>
      </root>
    </mxGraphModel>
  </diagram>
</mxfile>
